PathFileType	4	(X/Y/Z)	/Users/niels/Desktop/University/Third Semester/Perception and Action/Exam/Gymnastics Motion Tracking/Code for Gym Tracking/Analyzed Data/Webcam_Backflip/id2006_1_trajectory_Sports2D/id2006_1_trajectory_Sports2D_px_person00.trc
DataRate	CameraRate	NumFrames	NumMarkers	Units	OrigDataRate	OrigDataStartFrame	OrigNumFrames
29.797297297297295	29.797297297297295	11	22	m	29.797297297297295	129	148
Frame#	Time	Hip			RHip			RKnee			RAnkle			RBigToe			RSmallToe			RHeel			LHip			LKnee			LAnkle			LBigToe			LSmallToe			LHeel			Neck			Head			Nose			RShoulder			RElbow			RWrist			LShoulder			LElbow			LWrist		
		X1	Y1	Z1	X2	Y2	Z2	X3	Y3	Z3	X4	Y4	Z4	X5	Y5	Z5	X6	Y6	Z6	X7	Y7	Z7	X8	Y8	Z8	X9	Y9	Z9	X10	Y10	Z10	X11	Y11	Z11	X12	Y12	Z12	X13	Y13	Z13	X14	Y14	Z14	X15	Y15	Z15	X16	Y16	Z16	X17	Y17	Z17	X18	Y18	Z18	X19	Y19	Z19	X20	Y20	Z20	X21	Y21	Z21	X22	Y22	Z22
129	4.329251700680272	1.0452827523254449	-0.7666427557671377	0.0	1.0380725406753637	-0.7769688624286331	0.0	1.149427312463365	-1.0651229022799358	0.0	1.4723905023795443	-1.0784958264556816	0.0	0.4885078124999999	-1.2011458740234375	0.0			0.0	0.6022995993219621	-0.9144047523553575	0.0	1.0485060519899678	-0.7771260988373601	0.0	0.9994414839541559	-1.0594119067068994	0.0	1.153325725630113	-1.080465615668877	0.0			0.0	0.6565377250546073	-1.0058535076118318	0.0	0.6601380849954585	-0.9868968158852939	0.0	1.1119230570703889	-0.26200297495098507	0.0	1.2144823206308342	-0.06863207514834488	0.0	1.2411117425329699	-0.19201404481915574	0.0	1.0567661377620463	-0.29832549616304005	0.0	0.9156457058828824	-0.5254444838466689	0.0	0.8235103885897621	-0.7350007826913989	0.0	1.1136595078581417	-0.3249149021284757	0.0	1.0690504471853604	-0.5465931714263069	0.0	1.173017124234857	-0.7252446377534472	0.0
130	4.36281179138322	1.0204682530112181	-0.7617179831510803	0.0	1.0069658127891568	-0.7703934055187335	0.0	1.1290324227250559	-1.0657170758311256	0.0	1.4732384777539638	-1.0787000924822407	0.0	0.4885078124999999	-1.2011458740234375	0.0			0.0	0.6022871179267976	-0.9144344853071806	0.0	1.0278742183336302	-0.7723814528296404	0.0	0.9705311963670488	-1.0590196368322093	0.0	1.0440100360030236	-1.0777404710579808	0.0			0.0	0.6565656821496538	-1.0058741193316982	0.0	0.660116418080021	-0.9869088384550392	0.0	1.1082910592386432	-0.2685323997216931	0.0	1.2136790026955133	-0.07923790452021462	0.0	1.2383363610521358	-0.19929718073467476	0.0	1.0438468296519208	-0.2996189800190248	0.0	0.8692176305807907	-0.5021725610894421	0.0	0.7290863047910084	-0.6819465532599893	0.0	1.117034174673318	-0.3375509505971248	0.0	1.0460731896595652	-0.54211650935119	0.0	1.155970360352582	-0.7399608694300843	0.0
131	4.396371882086168	0.9961907070668743	-0.7568894930167903	0.0	0.9767077056968657	-0.7630294297637779	0.0	1.109653807766807	-1.0664026538010205	0.0	1.4758539582389876	-1.0791706214318169	0.0	0.4885078124999999	-1.2011458740234375	0.0			0.0	0.6022843240311608	-0.9144411408743885	0.0	1.0087670211795983	-0.7676237639069904	0.0	0.9495093802128786	-1.058604791884745	0.0	0.9568786892265153	-1.072299249588568	0.0			0.0	0.6566536684482418	-1.0059389883367058	0.0	0.6602415657363025	-0.9869579735689159	0.0	1.1060649483250107	-0.27383223589996675	0.0	1.2145418359255973	-0.08883326543225967	0.0	1.237124476346191	-0.20554852044175487	0.0	1.0336769516142257	-0.2996558626455642	0.0	0.8305989880727678	-0.47414678208749506	0.0	0.6460188221152928	-0.623010227829198	0.0	1.1210497089408669	-0.34975001964032487	0.0	1.0312261428527936	-0.5368585370226119	0.0	1.1468357948200079	-0.7502862205138661	0.0
132	4.429931972789116	0.9731739831670839	-0.7522761009879503	0.0	0.9483864602545133	-0.7551028216011193	0.0	1.0914983997429615	-1.0675032485285516	0.0	1.4810422849888147	-1.079978834230297	0.0	0.4885078124999999	-1.2011458740234375	0.0			0.0	0.6023068240092823	-0.9143875418370465	0.0	0.9911539290978494	-0.7630122058018303	0.0	0.9371874099547693	-1.0582820334470437	0.0	0.8947116265160852	-1.0645727626827466	0.0			0.0	0.6568295629434788	-1.0060686687650846	0.0	0.6606405667263496	-0.9870648963802824	0.0	1.1043216901947126	-0.27780969031330915	0.0	1.216955600013974	-0.09700496861274388	0.0	1.2368700377672963	-0.21063648551135047	0.0	1.0261472501015447	-0.29826729115596307	0.0	0.8007561758795224	-0.44448294127963117	0.0	0.5795338337085293	-0.5636158742768016	0.0	1.124249061322032	-0.36047736615815157	0.0	1.025109603441594	-0.5328673427101841	0.0	1.1435955150901334	-0.7560841362072009	0.0
133	4.463492063492064	0.9517187179009522	-0.7476158794931334	0.0	0.9227172353357784	-0.7468862540080281	0.0	1.0730305171207075	-1.0689212941351722	0.0	1.489072343606453	-1.081076970685374	0.0	0.4885078124999999	-1.2011458740234375	0.0			0.0	0.6023758909219796	-0.9142230118978264	0.0	0.9745977139546046	-0.7583315028524933	0.0	0.9332070381394117	-1.057959063384387	0.0	0.8518106343900049	-1.0552662770810102	0.0			0.0	0.6571034419218876	-1.0062705894857766	0.0	0.6614421689912795	-0.9872419198587032	0.0	1.102301017911761	-0.2805554987679842	0.0	1.2204661390728877	-0.10360363247113812	0.0	1.2370719604399156	-0.21467729337169322	0.0	1.0209660200744994	-0.2958182972215189	0.0	0.779513100245697	-0.4167420991522971	0.0	0.5312970723092767	-0.509295463999362	0.0	1.1253252624565862	-0.3687309012218287	0.0	1.0247227946615582	-0.5304408689357606	0.0	1.1437144359750597	-0.7584101273386429	0.0
134	4.4970521541950115	0.9319399100122642	-0.7427590660560025	0.0	0.9000247308757076	-0.7388867813369933	0.0	1.0515399837601627	-1.0702448953681016	0.0	1.4987378181500102	-1.082159761276966	0.0	0.4885078124999999	-1.2011458740234375	0.0			0.0	0.6025126204228407	-0.9138972973756666	0.0	0.9586331288063605	-0.7533807763168265	0.0	0.9354671571052295	-1.05751599326066	0.0	0.8205143160765536	-1.0449946063871358	0.0			0.0	0.6574356689233631	-1.0065155280201652	0.0	0.662695106897053	-0.9874730516503476	0.0	1.0996045588902126	-0.28227540062573747	0.0	1.2243084280653234	-0.10880008916892453	0.0	1.2373119786469327	-0.21803752168431687	0.0	1.0176585428544933	-0.29304392514732186	0.0	0.7657616602572326	-0.3942226782602658	0.0	0.4998346584282308	-0.4655783017518867	0.0	1.123537763720764	-0.3739859355817885	0.0	1.0237809832722462	-0.528065985687387	0.0	1.1452586058447405	-0.7586372067817195	0.0
135	4.530612244897959	0.9137992620502398	-0.7380156239484377	0.0	0.8802796861232858	-0.7318795260640499	0.0	1.0249474889683623	-1.0710619223662392	0.0	1.5060473517416573	-1.0824976745071722	0.0	0.4885078124999999	-1.2011458740234375	0.0			0.0	0.6027238895683844	-0.9133940158720081	0.0	0.9427966104973912	-0.7483173839021686	0.0	0.9400162106393055	-1.0569431468200765	0.0	0.7944883354206829	-1.0342038341666373	0.0			0.0	0.6576920875205371	-1.0067045758552382	0.0	0.6642224297935687	-0.9876841837131807	0.0	1.0960980795992983	-0.2833586032638149	0.0	1.227533823419949	-0.11306712315597173	0.0	1.2370892950452619	-0.2211959513619812	0.0	1.0156080626854742	-0.29083626686574504	0.0	0.7578253710566436	-0.37967970872775464	0.0	0.4819395372377601	-0.4378931236826652	0.0	1.118746157783906	-0.376453771478358	0.0	1.0165886297467155	-0.524413421057498	0.0	1.1470447731562843	-0.7579245927313121	0.0
136	4.564172335600907	0.8973473229172945	-0.7342800212854226	0.0	0.8634306249336259	-0.72690806153826	0.0	0.9933163917961503	-1.0712968538516523	0.0	1.5028718691134657	-1.0808102830233193	0.0	0.4885078124999999	-1.2011458740234375	0.0			0.0	0.6029776361957393	-0.912789545286231	0.0	0.9269998186095142	-0.7439035393206613	0.0	0.9424262325547466	-1.0564600663037949	0.0	0.7698519887854448	-1.0232781401109534	0.0			0.0	0.6575972585649381	-1.006634662015307	0.0	0.6654161325031833	-0.9877088639462093	0.0	1.091646717793013	-0.2844361762478923	0.0	1.229075663810344	-0.1169441632136278	0.0	1.2357223561567654	-0.2245418505110388	0.0	1.0140061861318395	-0.2901915472399152	0.0	0.7538568114690973	-0.37525325548288885	0.0	0.47418207478262764	-0.4310992723302578	0.0	1.1113848994111948	-0.37705917841340086	0.0	1.001152064597501	-0.5198165389195571	0.0	1.1484723917761044	-0.7570754377245571	0.0
137	4.597732426303855	0.8828776588519531	-0.7327247419586275	0.0	0.849560015220653	-0.7250014307305602	0.0	0.958804629902204	-1.071146927992775	0.0	1.4763722754913249	-1.0753195785943042	0.0	0.4885078124999999	-1.2011458740234375	0.0			0.0	0.6031684259176574	-0.9123350494918621	0.0	0.9118192973059978	-0.7413474086896409	0.0	0.940120917704267	-1.0564485365307668	0.0	0.7451589116006319	-1.012743635940711	0.0			0.0	0.6567135259287703	-1.0059831190168966	0.0	0.6650214054133005	-0.9872657381479409	0.0	1.0859961158835063	-0.2862368252243178	0.0	1.2278694356195194	-0.12076686324601384	0.0	1.232393570275681	-0.2281765529068461	0.0	1.0118381878545657	-0.29204300864183197	0.0	0.752447936671009	-0.3823157153316233	0.0	0.47483346251048153	-0.4484867600860758	0.0	1.1022770984774721	-0.3769849481574431	0.0	0.9785329415747351	-0.5158153442732186	0.0	1.1492615624301576	-0.7565916845704109	0.0
138	4.631292517006803	0.8707877467702858	-0.7342340302446392	0.0	0.8386698196205085	-0.7268310741049606	0.0	0.9245423361347953	-1.0706428369592869	0.0	1.4106916763875632	-1.0642043560593677	0.0	0.4885078124999999	-1.2011458740234375	0.0			0.0	0.603081997727258	-0.9125409371500466	0.0	0.8983149074888895	-0.7418285949527206	0.0	0.9337937562722466	-1.0570506815208407	0.0	0.7209180380880572	-1.0034834808261226	0.0			0.0	0.6544963343742314	-1.0043484666634892	0.0	0.6610367597996908	-0.9859790077111612	0.0	1.0788693901332425	-0.28926527255004814	0.0	1.222955303819757	-0.12449202333965086	0.0	1.226236145502079	-0.23184391622535763	0.0	1.0080563314462028	-0.29700726862778887	0.0	0.7532668642935406	-0.401161713874515	0.0	0.4854234539017884	-0.4904478344809708	0.0	1.092077460778962	-0.3769609113108521	0.0	0.9517163766648026	-0.5143908759181864	0.0	1.1492259339939275	-0.7567795645221183	0.0
139	4.664852607709751	0.8613492653330539	-0.7390592246017479	0.0	0.8304837315413551	-0.7326510957063406	0.0	0.8936166642649211	-1.0695605712489475	0.0	1.2930272514858632	-1.0467291747177643	0.0	0.4885078124999999	-1.2011458740234375	0.0			0.0	0.602380509506888	-0.9142120095891286	0.0	0.8876610732025542	-0.7461084588649428	0.0	0.9266912819469785	-1.0579996415561201	0.0	0.6989521438712176	-0.9968525197222867	0.0			0.0	0.6504981083773406	-1.0014007242720422	0.0	0.6509601390327464	-0.9834897198602068	0.0	1.070075697258016	-0.2935305524578448	0.0	1.2134759462928413	-0.12764848547022953	0.0	1.2164514766416317	-0.23496248454658902	0.0	1.0018022519465775	-0.3051421725093255	0.0	0.7571271680401134	-0.43070557787718705	0.0	0.510389136876589	-0.5535260561850401	0.0	1.0809733263933126	-0.37709989207684746	0.0	0.9259066535164797	-0.5178982507419782	0.0	1.148149954874856	-0.7578079099002444	0.0
